<svg id="Layer_1" data-name="Layer 1" xmlns="http://www.w3.org/2000/svg" viewBox="0 0 986.11 722.95"><path d="M160.26,324.57c.88,3.21,1.72,6.62,2.52,10.26a5.66,5.66,0,0,0,11.06,0c.14-.66.29-1.31.44-1.95A51.75,51.75,0,0,0,160.26,324.57ZM83.78,525.42A42.86,42.86,0,0,0,63.39,514v47.13H96.47c.15-2.32.22-4.26.22-5.84Q96.69,538,83.78,525.42Zm0,0A42.86,42.86,0,0,0,63.39,514v47.13H96.47c.15-2.32.22-4.26.22-5.84Q96.69,538,83.78,525.42Zm22.91,86.14q0-2.13-.45-7.41H77.71L63.39,582.63V639h37.85l-1.18-1.79A52.17,52.17,0,0,0,106.69,611.56ZM162.09,476v-1.68c25.2-8,35.7-34.44,35.7-73.92,0-30.82-7.36-51.66-20.12-64.42a9.65,9.65,0,0,1-18.79-.28c-1-4.62-2.08-8.86-3.23-12.76a77.62,77.62,0,0,0-23-3.18H63.39V509.91c.3,0,.61.12.91.19a46.93,46.93,0,0,1,22.27,12.46c9.37,9.12,14.12,20.14,14.12,32.73,0,1.7-.08,3.75-.23,6.1l-.24,3.74H63.39v10.28l3.33,5,13.13,19.74h30.06l.32,3.66c.31,3.67.46,6.2.46,7.75a56.18,56.18,0,0,1-6,25.37l1.33,2h26.24c45.36,0,69.3-28.56,69.3-86.1C201.57,505.81,188.55,483.55,162.09,476Zm-46.2-114.66h10.5c13.44,0,22.26,5.46,22.26,46.62,0,37.38-7.14,47-22.26,47h-10.5Zm11.34,236.46H115.89V495.73h11.34c15.54,0,23.52,12.6,23.52,53.34C150.75,583.93,144,597.79,127.23,597.79ZM83.78,525.42A42.86,42.86,0,0,0,63.39,514v47.13H96.47c.15-2.32.22-4.26.22-5.84Q96.69,538,83.78,525.42Z"/><path d="M351,534.79c.84-8.82,1.26-28.56,1.26-44.94,0-57.54-16-79.38-59.22-79.38-39.48,0-61.74,22.26-61.74,61.74V582.67c0,39.48,21.42,61.32,61.32,61.32,37.8,0,57.12-20.58,57.12-58.38a244.61,244.61,0,0,0-1.68-29L310.68,560a159.3,159.3,0,0,1,1.26,20.58c0,17.22-3.78,24.36-15.54,24.36-10.08,0-15.54-4.62-15.54-18.06V534.79Zm-70.14-68.46c0-10.08,4.2-17.22,13.86-17.22,10.92,0,15.54,8,15.54,35.28a124.33,124.33,0,0,1-.84,14.28H280.86Z"/><path d="M470.56,600.15a2.12,2.12,0,0,0,0,4.14c1.45.32,2.81.66,4.09,1l1.23-6.52C474.26,599.27,472.49,599.72,470.56,600.15Zm-.86-3.9a58,58,0,0,0,7-1.94l33.36-176.7H464.31l-18.48,152h-1.68L429,417.61H374l46.2,230.58L416,669.61c-2.52,11.76-8.82,14.7-22.26,14.7a32.19,32.19,0,0,1-11.34-1.68v38.64A118,118,0,0,0,401.73,723c39.48,0,55.86-26.88,63-65.1l9.18-48.62c-1.29-.36-2.69-.7-4.21-1a6.11,6.11,0,0,1,0-11.94Z"/><path d="M593.17,410.47c-37,0-63.84,19.74-63.84,62.58V583.51c0,39.9,28.14,60.06,63.84,60.06,39.9,0,63.84-23.52,63.84-60.06V473.05C657,428.53,629.29,410.47,593.17,410.47Zm14.7,177.66c0,12.18-5.88,16.8-14.7,16.8-8,0-14.28-4.62-14.28-16.8V468.43c0-14.28,5-19.32,14.28-19.32s14.7,4.62,14.7,18.9Z"/><path d="M777.88,410.47c-19.74,0-30.24,13.86-39.48,28.56h-1.68a115.08,115.08,0,0,0-2.52-21.42H690.1c1.68,7.56,2.1,16.38,2.1,25.62V639h49.14V473.47c0-13,6.3-20.58,15.12-20.58,9.66,0,13.86,5.88,13.86,18.06V639h49.14V467.59C819.46,427.69,805.6,410.47,777.88,410.47Z"/><path d="M982.75,608.29V319.75H933.19V427.27h-1.68c-4.2-5.88-13.44-16.8-33.6-16.8-24.36,0-42.84,18.48-42.84,58.38V584.77c0,35.7,18.06,58.8,47.46,58.8,17.64,0,28.14-8.82,36.54-21h1.68A102.62,102.62,0,0,0,943.69,639h42.42C984,631,982.75,620.47,982.75,608.29Zm-49.14-22.68c0,11.76-3.36,20.16-14.7,20.16-8.82,0-14.28-5.88-14.28-18.9V467.17c0-12.6,3.78-18.48,13.44-18.48,11.34,0,15.54,10.08,15.54,23.1Z"/><path d="M160.75,33.51a24.15,24.15,0,0,0-8.2,1.4,69.49,69.49,0,0,1-15.6,1.4H87.75a102.51,102.51,0,0,1-17.2-1.4c-3.8-.8-6-1.4-7.4-1.4-11.4,0-25.8,22.2-25.8,39.2,0,7.2,4.6,14.4,12.4,14.4,16.2,0,20.6-23.6,29.6-23.6,2.8,0,7-.2,6.2,20.8L84,128.51c-.2,5-1,17-3,21.2-4,7.6-16.4,3.4-16.4,14,0,15.4,37.4,15,47.6,15,37.4,0,41.2-8.8,41.2-15,0-14-18.4-2.6-18.4-26.4V75.91c0-1.6-.8-12.4,7-12.4,10.2,0,10,23.6,27.4,23.6,10.2,0,15.4-6.6,15.4-16.6C184.75,48.91,168.55,33.51,160.75,33.51Z"/><path d="M244.55,74.31c-33,0-64.4,20.2-64.4,56,0,31.6,25.2,49,54.8,49,29.4,0,64.6-20,64.6-52.8C299.55,101.71,279.55,74.31,244.55,74.31Zm2.28,78.76a2.29,2.29,0,0,1-2.33,2.14,2.24,2.24,0,0,1-2.16-1.52c-6-16.1-12-20.67-29.13-22a2.32,2.32,0,0,1-.62-4.49c16.1-6,20.67-12,22-29.13A2.29,2.29,0,0,1,237,95.9a2.26,2.26,0,0,1,2.16,1.52c6,16.1,12,20.67,29.12,22a2.32,2.32,0,0,1,.63,4.49C252.76,129.91,248.19,136,246.83,153.07Z"/><path d="M455.35,145.31c-3.6,0-7.2,4.6-13.4,4.6-5.4,0-11-3.2-11-16.6v-29.8c0-7.2.4-7.4,7.4-7.4h13.8c7.8,0,9.2-.8,9.2-12.2,0-9,0-9.6-8.6-9.6h-14c-5.2,0-6.6,0-7.2-1.6-1-2.4-.6-8.6-.6-14.8,0-9.2-.4-8.4-8.4-8.4-6,0-5.8-.6-10.4,2.2l-45.6,29c-2.4,1.6-1.8,3.8-1.8,6.6,0,4.6-.4,6.6,1,8,1,1,3.6.8,8.8.8,4.6,0,6.8-.4,7.8.2s1,2,1,5.6v41.2c0,31.8,25.6,36.2,35.8,36.2,20.2,0,43-11.6,43-24.8C462.15,150.91,459.35,145.31,455.35,145.31Z"/><path d="M594.35,146.71l-.8-32.2c-.2-5.6,2.4-40.2-34.4-40.2-22.4,0-25,17.8-31,17.8-5.2,0-5-6.4-4.8-10.2l1.2-38c0-5.8-.4-7.6-6.4-7.6-.2,0-52.2,4.2-52.2,20.2,0,9.4,12,4.4,12.4,18.6.2,9,.8,18.2.8,27.2,0,11,0,37.4-2.4,46.8-3.4,13-11.2,9.4-11.2,17.4,0,6.2,6.6,12.2,35.2,12.2,7.6,0,30.4-.2,30.4-11.8,0-7.2-8-3.8-8-20.4v-23.2c0-9-.4-19.4,11.8-19.4,14.2,0,14.4,18.8,14.4,28.8a110.86,110.86,0,0,1-1.4,20c-1.6,10.2-7.2,10-7.2,15.8,0,10.2,24.2,10.2,30.4,10.2,7.4,0,33,.2,33-11.4C604.15,159.51,594.35,163.71,594.35,146.71Z"/><path d="M659,130.51h43.4c6.4,0,12.4-1.8,12.4-15,0-15-15-41.2-49-41.2-30,0-56.2,22.4-56.2,53.2,0,25.8,18.6,51.8,54.6,51.8,18,0,46.2-11.2,46.2-26.6,0-3.8-3.6-10-7.8-10s-11.6,9-26.6,9c-9.4,0-22.4-8.4-22.4-18.4C653.55,129.91,656.75,130.51,659,130.51Zm-6.4-24.8c0-6.4,5.4-13.2,12-13.2,7.4,0,11.8,5.6,11.8,12.8s-6.4,6-11.8,6C659.35,111.31,652.55,112.91,652.55,105.71Z"/><path d="M236.82,260.8c-5.75-1.27-10.95-2.62-15.67-4.12a45.28,45.28,0,0,0,5.4,17.69q4.81-1.32,10.27-2.52A5.66,5.66,0,0,0,236.82,260.8Zm0,0c-5.75-1.27-10.95-2.62-15.67-4.12a45.28,45.28,0,0,0,5.4,17.69q4.81-1.32,10.27-2.52A5.66,5.66,0,0,0,236.82,260.8ZM339.4,271.21c-26.22-17.4-57.18-12.66-57.18-30.51,0-8.14,7.46-11.3,14.47-11.3,23.5,0,32.31,25.76,47.46,25.76,8.36,0,13.33-7.68,13.33-15.36,0-19-17.18-36.39-24.86-36.39-4.75,0-7.91,3.16-11.07,3.16-3.39,0-19.67-6.32-34.13-6.32-43.56,0-66.15,28.78-66.43,52.2,4.94,1.62,10.47,3.07,16.69,4.44a9.66,9.66,0,0,1,0,18.86c-3.18.7-6.19,1.42-9,2.18a64.2,64.2,0,0,0,13.79,15c25.08,20.11,56,16,56,32.31,0,8.59-12.43,11.08-17.4,11.08-41.58,0-38.87-35.94-54.91-35.94-6.78,0-9.5,6.11-9.5,12.21,0,11.52,5.2,35.48,16,41.58,12.88,7,38.42,10.85,53.33,10.85,52.66,0,74.36-29.83,74.36-56.27C360.42,291.78,353.41,280.48,339.4,271.21Z"/><path d="M466,326.58c-4.07,0-8.14,5.2-15.14,5.2-6.11,0-12.43-3.62-12.43-18.76V279.35c0-8.14.45-8.37,8.36-8.37h15.59c8.82,0,10.4-.9,10.4-13.78,0-10.17,0-10.85-9.72-10.85H447.2c-5.87,0-7.46,0-8.13-1.81-1.13-2.71-.68-9.72-.68-16.72,0-10.4-.45-9.49-9.49-9.49-6.78,0-6.56-.68-11.76,2.48l-51.52,32.77c-2.72,1.81-2,4.3-2,7.46,0,5.2-.45,7.46,1.13,9,1.13,1.13,4.07.9,10,.9,5.19,0,7.68-.45,8.81.23s1.13,2.26,1.13,6.33v46.55C384.6,360,413.53,365,425.05,365c22.83,0,48.59-13.11,48.59-28C473.64,332.91,470.48,326.58,466,326.58Z"/><path d="M593.2,307.82v-22.6c0-33.9-35.26-38.87-48.14-38.87-21.47,0-59.66,12.43-59.66,31.64,0,7.23,5.42,12.43,12.65,12.43,20.11,0,21.47-24.41,35-24.41,10.4,0,10.62,15.6,10.62,23.05,0,8.14-3.16,7.69-10.17,7.69-39.77,0-55.14,19.89-55.14,35.93,0,22.37,18.76,32.32,37.52,32.32a41.26,41.26,0,0,0,22.14-5.88c5-2.71,7.91-5.65,10.62-5.65,5.66,0,6.11,11.53,24,11.53,16.5,0,34.13-14,34.13-26.89C606.76,325.9,593.2,347.6,593.2,307.82Zm-48.82,16.05c0,6.78-.68,16-9.26,16-6.56,0-9.72-6.33-9.72-12.2,0-7.23,5.19-14.46,12.88-14.46C544.61,313.25,544.38,318.9,544.38,323.87Z"/><path d="M710.26,247c-19.43,0-22.82,17.85-28.25,17.85-3.84,0-3.61-5.2-3.84-7.91-.9-7.68-1.13-9.94-9.72-9.94-2,0-54.91,5-54.91,22.82,0,13.79,14,1.36,14,23.51v13.56c0,6.33-.68,19.21-2.49,24.86-2.48,7.91-12.88,7.91-12.88,17.4,0,15.59,30.74,15.14,41.13,15.14,24.86,0,44.75-1.13,44.75-15.37,0-13.56-17.18-7.45-18.53-17.4a207.53,207.53,0,0,1-1.81-24.86c0-4.07-1.13-19.21,5.2-19.21,5.87,0,9.94,12.88,24.63,12.88,14.92,0,27.8-12,27.8-27.12C735.35,258.33,725.41,247,710.26,247Z"/><path d="M788.68,246.35a47.53,47.53,0,0,0-25.39,6.84c.57,3.51,1.74,5.79,3.3,6.81a6.33,6.33,0,0,0,3.51.86c6.27,0,16.32-5.06,27.9-13.88A69.49,69.49,0,0,0,788.68,246.35Zm22.83,2.94a82.81,82.81,0,0,1-8.18-1.39c-13.78,11-25.47,17-33.23,17a10.15,10.15,0,0,1-5.71-1.52c-2.22-1.46-3.76-4-4.62-7.63a34.36,34.36,0,0,0-6.21,6.43A17.78,17.78,0,0,0,760,270a17,17,0,0,0,4.38,2.06,19.72,19.72,0,0,0,5.62.78c13.66,0,31-12.15,44.58-24A11.29,11.29,0,0,1,811.51,249.29Zm-16.27,27.57c0-4.29,4.07-7.68,8.13-7.68,10,0,17.18,17.85,30.06,17.85a10.86,10.86,0,0,0,11.08-10.62c0-9.27-10.4-30.06-20.8-30.06h-.37c-1.8,1.68-3.6,3.31-5.39,4.87-19.39,17-35.52,25.59-47.94,25.59a23.55,23.55,0,0,1-6.76-.95,20.43,20.43,0,0,1-5.43-2.55,21.18,21.18,0,0,1-6.78-7.23,35.55,35.55,0,0,0-4.17,17.1c0,37.29,44.3,38.87,44.3,52.2,0,5-4.29,7.23-8.81,7.23-12.66,0-21.7-22.37-31.64-22.37-6.56,0-8.59,4.75-8.59,10.62,0,8.59,5.65,21.47,11.3,27.8,3.16,3.62,5.42,4.29,9.94,4.29a24.78,24.78,0,0,0,4.3-.45,31.32,31.32,0,0,1,4.52-.45c1.35,0,6.32.68,12,1.36A119,119,0,0,0,800.89,365c23.5,0,44.07-14.69,44.07-35.93C845,294,795.24,291.32,795.24,276.86Z"/><path d="M883.83,308.73c-14.69,0-26.44,12.88-26.44,27.34,0,27.35,24.86,22.6,24.86,32.32,0,9-11.3,22.6-11.3,26.44,0,5.2,6.55,8.81,11.3,8.81,17.85,0,31.64-36.83,31.64-56.95C913.89,328.61,904.39,308.73,883.83,308.73Z"/><path d="M236.82,271.85q-5.46,1.2-10.27,2.52c-32.34,8.88-44.08,22.7-52.27,58.51-.15.64-.3,1.29-.44,1.95a5.66,5.66,0,0,1-11.06,0c-.8-3.64-1.64-7.05-2.52-10.26-9-32.93-23.2-44.5-60.46-52.72a5.66,5.66,0,0,1,0-11.05c40.9-9,54-22.09,63-63a5.66,5.66,0,0,1,11.06,0c7.75,35.14,18.49,49.73,47.31,58.86,4.72,1.5,9.92,2.85,15.67,4.12A5.66,5.66,0,0,1,236.82,271.85Z"/><path d="M128.8,223c-11.84,2.62-15.62,6.4-18.24,18.24a1.64,1.64,0,0,1-3.2,0C104.75,229.43,101,225.65,89.13,223a1.64,1.64,0,0,1,0-3.2c11.84-2.61,15.62-6.39,18.23-18.23a1.64,1.64,0,0,1,3.2,0c2.62,11.84,6.4,15.62,18.24,18.23A1.64,1.64,0,0,1,128.8,223Z"/><path d="M921.93,278.07c-9.25,2-12.2,5-14.24,14.25a1.28,1.28,0,0,1-2.5,0c-2-9.25-5-12.21-14.25-14.25a1.28,1.28,0,0,1,0-2.5c9.25-2,12.21-5,14.25-14.25a1.28,1.28,0,0,1,2.5,0c2,9.26,5,12.21,14.24,14.25A1.28,1.28,0,0,1,921.93,278.07Z"/><path d="M955.47,236.42c-15.3,3.38-20.19,8.26-23.56,23.56a2.12,2.12,0,0,1-4.14,0c-3.38-15.3-8.26-20.18-23.56-23.56a2.11,2.11,0,0,1,0-4.13c15.3-3.38,20.18-8.27,23.56-23.57a2.12,2.12,0,0,1,4.14,0c3.37,15.3,8.26,20.19,23.56,23.57A2.11,2.11,0,0,1,955.47,236.42Z"/><path d="M521.83,604.29c-15.31,3.37-20.19,8.26-23.57,23.56a2.11,2.11,0,0,1-4.13,0c-3.06-13.85-7.35-19.17-19.48-22.55-1.28-.35-2.64-.69-4.09-1a2.12,2.12,0,0,1,0-4.14c1.93-.43,3.7-.88,5.32-1.37,11.19-3.4,15.3-8.82,18.25-22.19a2.11,2.11,0,0,1,4.13,0c3.38,15.3,8.26,20.19,23.57,23.56A2.12,2.12,0,0,1,521.83,604.29Z"/><path d="M534.18,629.84c-8.69,1.92-11.46,4.69-13.38,13.38a1.2,1.2,0,0,1-2.35,0c-1.91-8.69-4.69-11.46-13.37-13.38a1.2,1.2,0,0,1,0-2.34c8.68-1.92,11.46-4.69,13.37-13.38a1.2,1.2,0,0,1,2.35,0c1.92,8.69,4.69,11.46,13.38,13.38A1.2,1.2,0,0,1,534.18,629.84Z"/><path d="M509.62,650.25c-5.36,1.18-7.07,2.89-8.26,8.25a.74.74,0,0,1-1.44,0c-1.19-5.36-2.9-7.07-8.25-8.25a.74.74,0,0,1,0-1.45c5.35-1.18,7.06-2.89,8.25-8.25a.74.74,0,0,1,1.44,0c1.19,5.36,2.9,7.07,8.26,8.25A.74.74,0,0,1,509.62,650.25Z"/><path d="M836.07,228h0c-.78-.09-1.55-.21-2.33-.34Q834.9,227.85,836.07,228Z"/><path d="M927.42,89.26s0,0,0,0q-1.21-2-2.52-4Q926.21,87.23,927.42,89.26Z"/><path d="M805.45,108.39c-15.74,23.92-29.3,48.3-39.32,70.71A92.35,92.35,0,0,1,855,44.33,513.77,513.77,0,0,0,805.45,108.39Z"/><path d="M815.42,115c-17.28,26.25-31.62,52.65-41.6,76.44a94.36,94.36,0,0,1-5.26-7.91c10-23,23.86-48,40.23-72.91,15.65-23.76,33.53-46.86,51.13-65.75a93.07,93.07,0,0,1,9.36,1.72C852.32,64.09,833.73,87.17,815.42,115Z"/><path d="M936.48,163A92.38,92.38,0,0,1,841,228.54l3.29-3.53-7.76-1a83.34,83.34,0,0,1-8.91-1.62l-2.23-.54-1.58,1.65-1.56,1.6-.79-.23A91.84,91.84,0,0,1,776.65,195c.27-.67.55-1.35.84-2,9.93-23.68,24.2-49.91,41.27-75.84s35.53-49.36,53.4-67.84l1.55-1.6.83.24a92,92,0,0,1,44.79,29.76c-.28.69-.57,1.38-.86,2.08l-.88,2.09,1.35,1.83a88.17,88.17,0,0,1,5,7.59l4,6.7,1.92-4.37A92,92,0,0,1,936.48,163Z"/><path d="M927.42,89.26s0,0,0,0q-1.21-2-2.52-4c-.44-.66-.89-1.32-1.34-2s-.92-1.29-1.39-1.93a264.59,264.59,0,0,0,9.46-26c7.27-24.26,7.28-41,0-45.82a8.77,8.77,0,0,0-2.32-1.07A12,12,0,0,0,925.85,8c-11.75,0-32.49,13.69-56.56,38.59h0c-17,17.53-35.55,40.61-53.86,68.41-17.28,26.25-31.62,52.65-41.6,76.44,0,0,0,0,0,0-3.15,7.48-5.85,14.7-8.08,21.58-6.1,18.82-8.11,33.79-6,42.68.86,3.58,2.4,6.17,4.62,7.63a10.15,10.15,0,0,0,5.71,1.52c7.76,0,19.45-5.94,33.23-17q3.3-2.64,6.75-5.66c5.43-4.76,11-10.1,16.65-15.94.56.13,1.11.26,1.67.37s.82.18,1.23.26c.77.16,1.54.31,2.31.44.6.11,1.19.21,1.79.3q1.17.18,2.34.33h0c-7,7.52-14,14.29-20.74,20.21l-.73.64c-13.6,11.81-30.92,24-44.58,24a19.72,19.72,0,0,1-5.62-.78A17,17,0,0,1,760,270a17.78,17.78,0,0,1-6.45-7.84c-5.66-12.74-1.06-34.12,4.6-51.57,2.77-8.54,6.25-17.62,10.39-27v0c10-23,23.86-48,40.23-72.91,15.65-23.76,33.53-46.86,51.13-65.75C884.73,18.24,909,0,925.85,0A18,18,0,0,1,936,2.86C952.09,13.46,945.35,48.54,927.42,89.26Z"/><path d="M844.33,225,841,228.54c-.84-.07-1.68-.14-2.53-.23s-1.63-.18-2.45-.3h0q-1.17-.15-2.34-.33c-.6-.09-1.19-.19-1.79-.3-.77-.13-1.54-.28-2.31-.44-.41-.08-.82-.16-1.23-.26s-1.11-.24-1.67-.37q-1.12-.27-2.25-.57c-.73-.19-1.46-.4-2.19-.61l1.56-1.6,1.58-1.65,2.23.54a83.34,83.34,0,0,0,8.91,1.62Z"/><path d="M929.86,93.65,927.94,98l-4-6.7a88.17,88.17,0,0,0-5-7.59l-1.35-1.83.88-2.09c.29-.7.58-1.39.86-2.08.48.59.95,1.18,1.42,1.78s1,1.23,1.41,1.85.93,1.28,1.39,1.93.9,1.31,1.34,2q1.3,2,2.52,4s0,0,0,0c.42.71.83,1.43,1.24,2.16S929.47,92.9,929.86,93.65Z"/><path d="M101.24,639l-1.18-1.79a52.17,52.17,0,0,0,6.63-25.6q0-2.13-.45-7.41H77.71L63.39,582.63l-14.31-21.5a9.2,9.2,0,0,1-1.91-5q0-6.41,6.62-6.4,7.08,0,8,11.45h34.7c.15-2.32.22-4.26.22-5.84q0-17.28-12.91-29.87A42.86,42.86,0,0,0,63.39,514,45.68,45.68,0,0,0,53,512.84a41.92,41.92,0,0,0-30.94,13A43,43,0,0,0,9.21,557.2q0,14.49,10.78,28.19Q0,601.79,0,624.81a46.86,46.86,0,0,0,14.54,34.65,48.37,48.37,0,0,0,35.21,14.32q14.27,0,27.4-9.21l4.5,5.39h40Zm-54-2.68a10.63,10.63,0,0,1-8.14-3.6,12.42,12.42,0,0,1-3.31-8.76q0-5.38,5.5-9.43L55,633.23C52.26,635.25,49.68,636.27,47.28,636.27Z"/></svg>