<svg id="Layer_1" data-name="Layer 1" xmlns="http://www.w3.org/2000/svg" viewBox="0 0 475.78 838.56"><path d="M0,0V782.86H475.72V0ZM130.85,268.33l33.51,8.34,27.8-116.34L221.58,37.21a16.73,16.73,0,0,1,32.56,0l29.42,123.12,27.8,116.34,33.52-8.34c10.64-2.65,19.16,6.22,18.53,15.53a9.08,9.08,0,0,1-.13,1.29c-.07.4-.17.8-.27,1.2s-.14.58-.24.91-.23.66-.36,1c-4.41,12.51-17.88,42.43-42.57,72.47-24.42,29.73-52.65,51.24-64.2,58.53l-.6.37a20.54,20.54,0,0,1-2.06,1.11,34.13,34.13,0,0,1-30.23,0,20.54,20.54,0,0,1-2.06-1.11l-.6-.37c-11.55-7.29-39.78-29.86-64.21-59.59-24.68-30-38.15-58.9-42.56-71.41-.14-.33-.25-.66-.36-1s-.17-.61-.25-.91-.2-.8-.26-1.2a9.19,9.19,0,0,1-.14-1.29C111.69,274.55,120.21,265.68,130.85,268.33ZM349.17,424.58c-10.59,10.6-22.93,15.42-27.57,10.79s.21-17,10.8-27.56S355.33,392.38,360,397,359.76,414,349.17,424.58Zm-195,10.79c-4.64,4.63-17-.19-27.57-10.79S111.14,401.65,115.77,397s17,.21,27.56,10.8S158.76,430.74,154.13,435.37ZM465.72,772.86H10V462.52H465.72Z"/><path d="M342.24,838.56h-7.59l-.6-6.39H329l-.6,6.39h-6.21l5.61-45.4h8.37Zm-8.9-12.3-1.73-22.88h-.24l-1.85,22.88Z"/><path d="M356.57,838.56a14.34,14.34,0,0,1-.41-2.33h-.24a6,6,0,0,1-5.2,3c-4.18,0-6.75-3.29-6.75-8.36V814.37c0-5.68,2.63-8.31,6.09-8.31a5.49,5.49,0,0,1,4.78,2.39h.24V793.16h7.05v41a17.53,17.53,0,0,0,.48,4.36Zm-1.43-23.77c0-1.85-.6-3.29-2.21-3.29-1.37,0-1.91.84-1.91,2.63v17c0,1.85.78,2.68,2,2.68,1.61,0,2.09-1.19,2.09-2.86Z"/><path d="M377.54,838.56c-.12-.59-.36-2.09-.42-2.8h-.3a6.08,6.08,0,0,1-5.79,3.46c-4.24,0-6.27-2.57-6.27-7.88V830c0-3.94,2.09-6.63,6.75-9.5l4.3-2.69v-3.58c0-1.55-.54-2.63-2.09-2.63s-2.33.78-2.33,3.29a15.77,15.77,0,0,0,.24,2.86l-5.56.48a23.4,23.4,0,0,1-.3-4.06c0-5,2.69-8.07,8.48-8.07s8.55,3.41,8.55,9.38v18.82a18.51,18.51,0,0,0,.36,4.3Zm-1.73-14.93c-3.41,1.85-4.12,3-4.12,4.72v3c0,1.68.59,2.45,1.91,2.45,1.67,0,2.21-1.19,2.21-3.1Z"/><path d="M402.39,831c0,5-2.93,8.3-8.66,8.3-5.56,0-7.71-3.52-7.71-8.36a13.49,13.49,0,0,1,.36-3.29l5.14.54a12.66,12.66,0,0,0-.24,2.33c0,2.51.72,3.28,2.15,3.28a2,2,0,0,0,2-2.27V831c0-1.62-1.31-3.11-2.39-4.19l-3.23-3.22c-2.15-2.15-4-4.84-4-8.31v-.77c0-5.2,2.87-8.43,8.25-8.43s7.94,2.51,7.94,8.55a15.62,15.62,0,0,1-.24,3l-5.14-.53a11.14,11.14,0,0,0,.18-2.15c0-2.63-.53-3.47-2.09-3.47-1.25,0-2,.84-2,2.45v.6a4.32,4.32,0,0,0,1.61,3.16l3.59,3.41c2.51,2.39,4.48,5.55,4.48,8.84Z"/><path d="M418.46,838.56a26.1,26.1,0,0,1-4.19.36c-5,0-7.4-2.69-7.4-7.7V812.34h-3.11v-4.6h1c3.52,0,5.19-4.48,5.55-8.72h3.47v8.06h4.66v5.26H413.8v18c0,2,.59,2.87,2.62,2.87a9.05,9.05,0,0,0,2-.24Z"/><path d="M434.7,814.13a8.27,8.27,0,0,0-2.21-.24c-3,0-4.12,2.15-4.12,6.21v18.46h-7V811.62a19.54,19.54,0,0,0-.36-4.54h6.34a27.89,27.89,0,0,1,.41,4.6H428c1.79-4.24,3.53-5.2,6.69-5.32Z"/><path d="M448.68,838.56c-.12-.59-.36-2.09-.42-2.8H448a6.08,6.08,0,0,1-5.79,3.46c-4.24,0-6.27-2.57-6.27-7.88V830c0-3.94,2.09-6.63,6.75-9.5l4.3-2.69v-3.58c0-1.55-.54-2.63-2.09-2.63s-2.33.78-2.33,3.29a15.77,15.77,0,0,0,.24,2.86l-5.56.48a23.4,23.4,0,0,1-.3-4.06c0-5,2.69-8.07,8.48-8.07s8.55,3.41,8.55,9.38v18.82a18.51,18.51,0,0,0,.36,4.3ZM447,823.63c-3.41,1.85-4.12,3-4.12,4.72v3c0,1.68.59,2.45,1.91,2.45,1.67,0,2.21-1.19,2.21-3.1Z"/><path d="M466.53,832c-5.33,0-8.89-4-8.89-9.2a9.11,9.11,0,0,1,9-9.19,9.2,9.2,0,0,1-.13,18.39Zm.13-17.46a8,8,0,0,0-8,8.26c0,4.94,3.35,8.34,7.87,8.34a8.4,8.4,0,0,0,8.36-8.34A8.52,8.52,0,0,0,466.66,814.51Zm0,13.74c-1.56,0-2.91-.75-2.91-2.67v-6c0-2,1.38-2.68,2.91-2.68a2.33,2.33,0,0,1,2.62,2.63,10.12,10.12,0,0,1-.05,1.25l-1.84-.13a5.2,5.2,0,0,0,.05-.89c0-.78-.18-1.14-.7-1.14s-.68.31-.68.8v6.24c0,.49.24.83.68.83s.7-.18.7-1.17a5.5,5.5,0,0,0-.05-.88l1.84-.13a11.25,11.25,0,0,1,.08,1.27A2.34,2.34,0,0,1,466.71,828.25Z"/><path d="M125.22,608.06a8.52,8.52,0,0,0,8.71-8.86c0-11.85-15-.28-15-13.43,0-10.42,21.57-11.14,28.86-11.14,26.85,0,28.43,7.57,28.43,11.72,0,3.71-3.15,6.28-6.58,6.85-3.71.43-4,1.15-5,4.86-5.57,20.86-25.71,30.86-46,30.86-30.28,0-56.71-21-56.71-52.57,0-30.15,25.57-51.58,56.14-51.58,12.57,0,19.43,3.86,23.15,3.86,2.57,0,6.28-2.14,8.85-2.14,8.86,0,14.15,14.57,14.15,21.86,0,7-3.58,14.14-11.29,14.14-14.14,0-14.14-19.86-33.57-19.86-12.43,0-20.43,10.29-20.43,25.43C98.93,597.49,116.07,608.06,125.22,608.06Z"/><path d="M267.5,551.49c0-15.29-12.28-9.43-12.28-17.72,0-8.85,16.57-8.57,22.43-8.57,5.42,0,21.14,0,21.14,8.29,0,8-10.72,3.14-10.72,16.14V588.2c0,6.43.15,40.72-49.28,40.72-56.29,0-50-43.43-50-45.15v-33c.57-9-9.14-9-9.14-15.57,0-2-1.58-10,27.85-10,23.29,0,28,4.29,28,9.86,0,10.29-10.43.71-11.14,18.14v26.29c0,17,6.43,27.86,21.57,27.86,22.57,0,21.57-18.72,21.57-20.29Z"/><path d="M365.08,525.77H318.51c-5,0-13.29,1-13.29,7.58,0,9.28,10.71,2.14,10.43,16.85l-1.14,49.57c-.43,20.86-11.72,9.43-11.72,19.72,0,5.71,6.14,8.14,11,8.14,4.14,0,8.14-.14,12.14-.43s8.15-.28,12.15-.28,7.85.14,12.28.28,9.57.43,15.72.43c36.14,0,51.71-25,51.71-51.57C417.79,550.35,404.79,525.77,365.08,525.77Zm32.25,53.67q-2.7.59-5.08,1.25c-16,4.39-21.8,11.22-25.85,28.94-.08.31-.15.63-.22,1a2.8,2.8,0,0,1-5.47,0c-.4-1.8-.81-3.49-1.25-5.07-4.47-16.29-11.47-22-29.9-26.08a2.8,2.8,0,0,1,0-5.47c20.23-4.46,26.69-10.92,31.15-31.15a2.8,2.8,0,0,1,5.47,0c3.83,17.38,9.15,24.6,23.4,29.12,2.34.74,4.91,1.4,7.75,2A2.8,2.8,0,0,1,397.33,579.44Z"/><path d="M181,660.71c0-6.08-8.14-6.62-12.59-6.62s-15.52-.33-15.52,6.29c0,6,7,3.58,7,8.25,0,1.52-4.67,20-8.36,20-2.6,0-5-6.73-5.75-8.47-1.09-2.39-4.78-9.12-4.78-12,0-2.71,4.89-3.69,4.89-7.27,0-1.85.43-6.73-20.63-6.73-22.69,0-21.17,6.51-21.17,7.16,0,2.71,1.85,4.23,4,5.32,3.26,1.85,5.54,8.58,5.54,9.55a19.22,19.22,0,0,1-1.42,4.24c-.54,1.63-2.82,9.44-5.64,9.44-2.5,0-4.89-7.6-5.43-9.33-.43-1.31-3.8-9.23-3.8-12.38,0-3.36,2.5-3.8,2.5-7.06,0-4.45-2.72-6.94-18.56-6.94-5,0-19.65.21-19.65,7.7,0,6.63,4.34,2.61,7.38,10.43l20.19,51.56c2,5,3.58,8.8,9.66,8.8,7.06,0,8.14-4,10.42-9.67L116,706.52c2.82-6.95,3.58-9.77,5.64-9.77,1.74,0,2.61,3.37,3.15,4.56l10,23.77c1.95,4.56,3.69,7.5,9.12,7.5,6.18,0,8.68-5.65,11-11.51l18.67-48.85C176.48,664.62,181,666,181,660.71Z"/><path d="M335.42,704.24c-6.95,0-.65,15.09-19.11,15.09-7.71,0-9-3.8-9-11.62V673.19c0-10.2,8.58-5.43,8.58-11.72,0-3.69-1.09-7.38-22.8-7.38-5.32,0-22.36.43-22.36,8.36,0,6.18,9.55,1.41,9.77,10.53.21,6.07.76,12.15.76,18.67s0,13.35-.22,21.28c-.33,12.59-8.79,6.94-8.79,13.67,0,5,5.53,4.78,9,4.78h36.26a37.74,37.74,0,0,1,8.14.76,30.59,30.59,0,0,0,5.43.76c5,0,11.07-10.86,11.07-19.32C342.15,709.45,340.3,704.24,335.42,704.24Z"/><path d="M408.91,654.19c-1.52,0-23.34,1.09-25.51,1.09-9,0-28.55-1.09-31.37-1.09-3.48,0-8.25,1.74-8.25,5.87,0,6,7.05,2,8.36,11.29a124.61,124.61,0,0,1,.32,15.63v15.09c0,3.58-.32,11.29-1.41,14.33-2.28,5.75-8.14,2.93-8.14,9,0,4.67,2.82,7.17,20.19,7.17,26.38,0,25.4-4.78,25.4-7.28,0-8.25-11,.65-10.53-15.41.11-11.19-.54-12,4.24-12,11.61,0,4.45,12.26,11.4,12.26,7.38,0,7.92-13.13,7.92-18.23,0-4.24-.43-16.07-6.62-16.07-7.6,0-2.28,10-10.64,10-6.3,0-6.4-1.85-6.4-3.8,0-15.75,2.82-15.2,9.44-15.2,20.84,0,16.94,11.18,24.43,11.18,4.12,0,5.86-3.8,5.86-7.49C417.6,663.1,413.15,654.19,408.91,654.19Z"/><path d="M276.17,693.32a7.62,7.62,0,0,0-6-7.49c-1.82-.4-3.5-.81-5.09-1.22-3.37-12.1-13-26.44-31.17-30-.57-2.07-1.11-4.28-1.64-6.66a7.68,7.68,0,0,0-15,0c-.53,2.41-1.08,4.65-1.66,6.74-16.18,3.17-28.51,14.47-31.74,30.09-1.43.37-2.93.72-4.5,1.07a7.68,7.68,0,0,0,0,15c1.6.35,3.13.72,4.59,1.09,3.35,15.83,15.68,27.34,31.7,30.25a.29.29,0,0,0,0,.09c.56,2,1.09,4.21,1.59,6.47a7.68,7.68,0,0,0,15,0c.09-.44.18-.83.28-1.22.47-2,.94-3.95,1.44-5.75,15.42-3.38,28.44-14.3,31.72-29.88,1.43-.36,2.92-.72,4.46-1.06A7.62,7.62,0,0,0,276.17,693.32Zm-9.85,4.29c-1.29.31-2.53.62-3.72.95-19.75,5.43-27.68,13.68-33,34-.35,1.31-.68,2.66-1,4.07-.1.42-.19.84-.28,1.27a3.69,3.69,0,0,1-7.2,0q-.58-2.7-1.22-5.14c-.14-.52-.27-1-.41-1.53-5.63-20.49-14.3-28.26-36.26-33.57-1-.24-2-.48-3.05-.71a3.67,3.67,0,0,1,0-7.18c1-.23,2-.46,3-.7,22.51-5.43,31.08-13.43,36.7-35q.65-2.49,1.25-5.24a3.69,3.69,0,0,1,7.2,0c.4,1.81.81,3.54,1.25,5.19,5,19.14,12.26,27.62,29.5,33.08,2.15.69,4.45,1.32,6.93,1.92,1.05.26,2.14.51,3.26.76a3.67,3.67,0,0,1,0,7.18C268.27,697.14,267.28,697.37,266.32,697.61Z"/></svg>