<svg id="Layer_1" data-name="Layer 1" xmlns="http://www.w3.org/2000/svg" viewBox="0 0 567 252"><defs><style>.cls-1{fill:#3a3a3a;}</style></defs><path class="cls-1" d="M330.09,76.19c-9.73,4.85-15,10.14-19.88,19.87a4.23,4.23,0,0,1-7.57,0c-4.85-9.73-10.14-15-19.88-19.87a4.25,4.25,0,0,1,0-7.58c9.74-4.85,15-10.14,19.88-19.87a4.23,4.23,0,0,1,7.57,0c4.86,9.73,10.15,15,19.88,19.87a4.25,4.25,0,0,1,0,7.58Z"/><path class="cls-1" d="M157,67.4A3.59,3.59,0,0,1,160.6,71V200a3.59,3.59,0,0,1-3.58,3.6H129a3.59,3.59,0,0,1-3.6-3.58V150.6h-52V200a3.58,3.58,0,0,1-3.56,3.6h-28a3.59,3.59,0,0,1-3.6-3.58V71a3.59,3.59,0,0,1,3.58-3.6h28A3.58,3.58,0,0,1,73.42,71V119.4h52V71A3.59,3.59,0,0,1,129,67.4h28Z"/><path class="cls-1" d="M244.82,200.6c-1,2.6-2.6,3.6-5.6,3.6h-29c-3,0-4.8-1-5.6-3.6l-30.2-84.4c-.8-2-.8-5,2.8-5h26.6c3.2,0,5.2,1,6,4l16.4,57.4h.4l15.8-57.4c.8-3,2.8-4,6-4h26.2c3.6,0,3.6,3,2.8,5Z"/><path class="cls-1" d="M294.22,111.2h25.2a3.59,3.59,0,0,1,3.6,3.58V200a3.59,3.59,0,0,1-3.58,3.6H294.22a3.59,3.59,0,0,1-3.6-3.58V114.8a3.59,3.59,0,0,1,3.58-3.6Z"/><path class="cls-1" d="M396.62,203.6c-15.2,0-29.2-3.4-39.2-11.2C348,185,342,173.6,342,158.2c0-11.4,3-23.6,10.6-32.8,7.8-9.4,20.4-16,39.6-16a57.57,57.57,0,0,1,10.4.8V71a3.59,3.59,0,0,1,3.58-3.6H431.4A3.59,3.59,0,0,1,435,71V200a3.59,3.59,0,0,1-3.58,3.6h-34.8Zm6-27v-39a57.5,57.5,0,0,0-8.4-.4c-6.4,0-11.6,2.6-14.8,6.8-2.8,3.6-4.2,8.2-4.2,13.6,0,7.4,2.8,12.2,6.8,15,5,3.4,11.8,4,18.2,4Z"/><path class="cls-1" d="M495.62,165.6a21.76,21.76,0,0,0,1.2,8c1.2,2.8,3.4,4.2,6.8,4.2,3,0,7-1.2,11.2-4.8,2-1.6,4.2-1.4,5,.6l8.6,18.2a3.63,3.63,0,0,1-1.4,4.6c-7.4,5.4-19.2,9.2-32,9.2-11.6,0-19.2-3.6-24-9-6-7-7.8-17-7.8-26.6V136.6h-9.6A3.59,3.59,0,0,1,450,133V114.8a3.59,3.59,0,0,1,3.58-3.6h9.62V93a3.59,3.59,0,0,1,3.58-3.6H492A3.59,3.59,0,0,1,495.6,93V111.2h22a3.59,3.59,0,0,1,3.6,3.58V133a3.59,3.59,0,0,1-3.58,3.6h-22Z"/></svg>