<svg xmlns="http://www.w3.org/2000/svg" viewBox="0 0 567 252"><defs><style>.cls-1{isolation:isolate;}.cls-2{mix-blend-mode:hard-light;}.cls-3{fill:#50a4ff;}</style></defs><g class="cls-1"><g id="Layer_1" data-name="Layer 1"><path d="M331.66,66.79c-9.73,4.85-15,10.14-19.87,19.87a4.24,4.24,0,0,1-7.58,0c-4.85-9.73-10.14-15-19.87-19.87a4.24,4.24,0,0,1,0-7.58c9.73-4.85,15-10.14,19.87-19.87a4.24,4.24,0,0,1,7.58,0c4.85,9.73,10.14,15,19.87,19.87A4.24,4.24,0,0,1,331.66,66.79Z"/><path d="M158.6,58a3.59,3.59,0,0,1,3.6,3.6v129a3.59,3.59,0,0,1-3.6,3.6h-28a3.59,3.59,0,0,1-3.6-3.6V141.2H75v49.4a3.59,3.59,0,0,1-3.6,3.6h-28a3.59,3.59,0,0,1-3.6-3.6V61.6A3.59,3.59,0,0,1,43.4,58h28A3.59,3.59,0,0,1,75,61.6V110h52V61.6a3.59,3.59,0,0,1,3.6-3.6Z"/><path d="M246.4,191.2c-1,2.6-2.6,3.6-5.6,3.6h-29c-3,0-4.8-1-5.6-3.6L176,106.8c-.8-2-.8-5,2.8-5h26.6c3.2,0,5.2,1,6,4l16.4,57.4h.4L244,105.8c.8-3,2.8-4,6-4h26.2c3.6,0,3.6,3,2.8,5Z"/><path d="M295.8,101.8H321a3.59,3.59,0,0,1,3.6,3.6v85.2a3.59,3.59,0,0,1-3.6,3.6H295.8a3.59,3.59,0,0,1-3.6-3.6V105.4A3.59,3.59,0,0,1,295.8,101.8Z"/><path d="M398.2,194.2c-15.2,0-29.2-3.4-39.2-11.2-9.4-7.4-15.4-18.8-15.4-34.2,0-11.4,3-23.6,10.6-32.8,7.8-9.4,20.4-16,39.6-16a57.75,57.75,0,0,1,10.4.8V61.6a3.59,3.59,0,0,1,3.6-3.6H433a3.59,3.59,0,0,1,3.6,3.6v129a3.59,3.59,0,0,1-3.6,3.6Zm6-27v-39a57.69,57.69,0,0,0-8.4-.4c-6.4,0-11.6,2.6-14.8,6.8-2.8,3.6-4.2,8.2-4.2,13.6,0,7.4,2.8,12.2,6.8,15,5,3.4,11.8,4,18.2,4Z"/><path d="M497.2,156.2a21.73,21.73,0,0,0,1.2,8c1.2,2.8,3.4,4.2,6.8,4.2,3,0,7-1.2,11.2-4.8,2-1.6,4.2-1.4,5,.6l8.6,18.2a3.64,3.64,0,0,1-1.4,4.6c-7.4,5.4-19.2,9.2-32,9.2-11.6,0-19.2-3.6-24-9-6-7-7.8-17-7.8-26.6V127.2h-9.6a3.59,3.59,0,0,1-3.6-3.6V105.4a3.59,3.59,0,0,1,3.6-3.6h9.6V83.6a3.59,3.59,0,0,1,3.6-3.6h25.2a3.59,3.59,0,0,1,3.6,3.6v18.2h22a3.59,3.59,0,0,1,3.6,3.6v18.2a3.59,3.59,0,0,1-3.6,3.6h-22Z"/><g class="cls-2"><path class="cls-3" d="M.12,93.92V74.07a5.07,5.07,0,0,1,1.41-3.53l62-64.61a5,5,0,0,1,8.58,3.53V29.31a5.08,5.08,0,0,1-1.42,3.53L8.69,97.46A5,5,0,0,1,.12,93.92Z"/><path class="cls-3" d="M54.07,93.92V74.07a5.08,5.08,0,0,1,1.42-3.53l62-64.61A5,5,0,0,1,126,9.46V29.31a5.07,5.07,0,0,1-1.41,3.53L62.65,97.46A5,5,0,0,1,54.07,93.92Z"/><path class="cls-3" d="M142.38,83.63c-6.73,3.36-10.39,7-13.75,13.75a2.92,2.92,0,0,1-5.23,0c-3.36-6.73-7-10.39-13.75-13.75a2.92,2.92,0,0,1,0-5.23c6.73-3.36,10.39-7,13.75-13.75a2.92,2.92,0,0,1,5.23,0c3.36,6.73,7,10.39,13.75,13.75A2.92,2.92,0,0,1,142.38,83.63Z"/></g><g class="cls-2"><path class="cls-3" d="M567,153.46v19.85a5.11,5.11,0,0,1-1.41,3.53l-62,64.62a5,5,0,0,1-8.58-3.54V218.07a5.11,5.11,0,0,1,1.41-3.53l61.95-64.61A5,5,0,0,1,567,153.46Z"/><path class="cls-3" d="M513,153.46v19.85a5.07,5.07,0,0,1-1.41,3.53l-61.95,64.62a5,5,0,0,1-8.58-3.54V218.07a5.08,5.08,0,0,1,1.42-3.53l62-64.61A5,5,0,0,1,513,153.46Z"/><path class="cls-3" d="M424.73,163.75c6.74-3.36,10.4-7,13.75-13.75a2.93,2.93,0,0,1,5.24,0c3.36,6.73,7,10.39,13.75,13.75a2.93,2.93,0,0,1,0,5.24c-6.73,3.35-10.39,7-13.75,13.75a2.93,2.93,0,0,1-5.24,0c-3.35-6.74-7-10.4-13.75-13.75A2.93,2.93,0,0,1,424.73,163.75Z"/></g></g></g></svg>