<svg id="Layer_1" data-name="Layer 1" xmlns="http://www.w3.org/2000/svg" viewBox="0 0 1012 468"><defs><style>.cls-1{fill:#fdb83b;}.cls-2{font-size:248.96px;font-family:CoolveticaRg-Regular, Coolvetica;}</style></defs><polygon class="cls-1" points="11.77 336.94 11.77 81.85 149.79 13.58 282.42 81.72 282.42 336.94 11.77 336.94"/><path d="M149.69,26.76l121,62.15V325.17H23.53v-236L149.69,26.76M149.9.41,0,74.54V348.71H294.18V74.54L149.9.41Z"/><rect x="41.19" y="356.62" width="211.81" height="35.3"/><rect x="41.19" y="401.34" width="211.81" height="35.3"/><rect x="91.79" y="444.87" width="105.91" height="23.53"/><rect x="78.83" y="134.58" width="58.84" height="58.83"/><rect x="156.51" y="134.23" width="58.84" height="58.83"/><rect x="78.83" y="213.8" width="58.84" height="58.83"/><rect x="156.51" y="214.24" width="58.84" height="58.83"/><text class="cls-2" transform="translate(369.08 221.7)">Idea<tspan x="0" y="209.97">House</tspan></text></svg>